<svg xmlns="http://www.w3.org/2000/svg" xmlns:xlink="http://www.w3.org/1999/xlink" width="40" zoomAndPan="magnify" viewBox="0 0 30 30.000001" height="40" preserveAspectRatio="xMidYMid meet" version="1.0"><defs><clipPath id="ace2e0dcdf"><path d="M 6 0 L 24 0 L 24 29 L 6 29 Z M 6 0 " clip-rule="nonzero"/></clipPath><clipPath id="d34da3e39a"><path d="M 8.828125 -1.277344 L 25.992188 1.699219 L 21.035156 30.304688 L 3.871094 27.328125 Z M 8.828125 -1.277344 " clip-rule="nonzero"/></clipPath><clipPath id="90c84d1dc7"><path d="M 8.828125 -1.277344 L 25.992188 1.699219 L 21.035156 30.304688 L 3.871094 27.328125 Z M 8.828125 -1.277344 " clip-rule="nonzero"/></clipPath><clipPath id="f64dab8f94"><path d="M 6 11 L 24 11 L 24 20 L 6 20 Z M 6 11 " clip-rule="nonzero"/></clipPath><clipPath id="3602151227"><path d="M 8.828125 -1.277344 L 25.992188 1.699219 L 21.035156 30.304688 L 3.871094 27.328125 Z M 8.828125 -1.277344 " clip-rule="nonzero"/></clipPath><clipPath id="1143ce655d"><path d="M 8.828125 -1.277344 L 25.992188 1.699219 L 21.035156 30.304688 L 3.871094 27.328125 Z M 8.828125 -1.277344 " clip-rule="nonzero"/></clipPath></defs><g clip-path="url(#ace2e0dcdf)"><g clip-path="url(#d34da3e39a)"><g clip-path="url(#90c84d1dc7)"><path fill="#bf79f5" d="M 6.910156 11.585938 L 15.941406 9.496094 L 23.464844 14.542969 L 17.53125 0.257812 Z M 6.253906 15.527344 L 13.800781 21.851562 L 23.210938 18.464844 L 12.671875 28.808594 L 6.253906 15.527344 " fill-opacity="1" fill-rule="nonzero"/></g></g></g><g clip-path="url(#f64dab8f94)"><g clip-path="url(#3602151227)"><g clip-path="url(#1143ce655d)"><path fill="#bf79f5" d="M 15.679688 11.238281 L 6.28125 13.40625 L 14.195312 19.792969 L 23.539062 16.515625 L 15.679688 11.238281 " fill-opacity="1" fill-rule="nonzero"/></g></g></g></svg>