<svg xmlns="http://www.w3.org/2000/svg" xmlns:xlink="http://www.w3.org/1999/xlink" width="40" zoomAndPan="magnify" viewBox="0 0 30 30.000001" height="40" preserveAspectRatio="xMidYMid meet" version="1.0"><defs><clipPath id="9079b2c302"><path d="M 0.484375 0 L 29.515625 0 L 29.515625 29.03125 L 0.484375 29.03125 Z M 0.484375 0 " clip-rule="nonzero"/></clipPath></defs><g clip-path="url(#9079b2c302)"><path fill="#bf79f5" d="M 17.988281 16.183594 C 19.996094 14.875 23.449219 14.703125 29.515625 14.515625 C 23.449219 14.328125 19.996094 14.160156 17.988281 12.847656 C 18.585938 11.5 19.875 9.933594 21.855469 7.660156 C 19.582031 9.640625 18.019531 10.929688 16.667969 11.527344 C 15.355469 9.523438 15.1875 6.066406 15 0 C 14.8125 6.066406 14.644531 9.523438 13.332031 11.527344 C 11.980469 10.929688 10.417969 9.640625 8.144531 7.660156 C 10.125 9.933594 11.414062 11.5 12.011719 12.847656 C 10.003906 14.160156 6.550781 14.328125 0.484375 14.515625 C 6.550781 14.703125 10.003906 14.875 12.011719 16.183594 C 11.414062 17.535156 10.125 19.097656 8.144531 21.371094 C 10.417969 19.390625 11.980469 18.101562 13.332031 17.503906 C 14.644531 19.511719 14.8125 22.96875 15 29.03125 C 15.1875 22.96875 15.355469 19.511719 16.667969 17.503906 C 18.019531 18.101562 19.582031 19.390625 21.855469 21.371094 C 19.875 19.097656 18.585938 17.535156 17.988281 16.183594 Z M 17.988281 16.183594 " fill-opacity="1" fill-rule="nonzero"/></g></svg>